<?xml version="1.0" encoding="UTF-8" standalone="no"?>
<!-- Generator: Adobe Illustrator 19.0.0, SVG Export Plug-In . SVG Version: 6.00 Build 0)  -->

<svg
   xmlns:dc="http://purl.org/dc/elements/1.1/"
   xmlns:cc="http://creativecommons.org/ns#"
   xmlns:rdf="http://www.w3.org/1999/02/22-rdf-syntax-ns#"
   xmlns:svg="http://www.w3.org/2000/svg"
   xmlns="http://www.w3.org/2000/svg"
   xmlns:sodipodi="http://sodipodi.sourceforge.net/DTD/sodipodi-0.dtd"
   xmlns:inkscape="http://www.inkscape.org/namespaces/inkscape"
   version="1.1"
   id="Layer_1"
   x="0px"
   y="0px"
   viewBox="0 0 512 512"
   style="enable-background:new 0 0 512 512;"
   xml:space="preserve"
   inkscape:version="0.91 r13725"
   sodipodi:docname="book.svg"><metadata
     id="metadata57"><rdf:RDF><cc:Work
         rdf:about=""><dc:format>image/svg+xml</dc:format><dc:type
           rdf:resource="http://purl.org/dc/dcmitype/StillImage" /></cc:Work></rdf:RDF></metadata><defs
     id="defs55" /><sodipodi:namedview
     pagecolor="#ffffff"
     bordercolor="#666666"
     borderopacity="1"
     objecttolerance="10"
     gridtolerance="10"
     guidetolerance="10"
     inkscape:pageopacity="0"
     inkscape:pageshadow="2"
     inkscape:window-width="1366"
     inkscape:window-height="715"
     id="namedview53"
     showgrid="false"
     inkscape:zoom="0.92187499"
     inkscape:cx="331.8679"
     inkscape:cy="283.65481"
     inkscape:window-x="-8"
     inkscape:window-y="-8"
     inkscape:window-maximized="1"
     inkscape:current-layer="Layer_1" /><g
     id="g23" /><g
     id="g25" /><g
     id="g27" /><g
     id="g29" /><g
     id="g31" /><g
     id="g33" /><g
     id="g35" /><g
     id="g37" /><g
     id="g39" /><g
     id="g41" /><g
     id="g43" /><g
     id="g45" /><g
     id="g47" /><g
     id="g49" /><g
     id="g51" /><g
     id="g4170"
     transform="translate(-9.7627115,-5.4237289)"
     inkscape:export-xdpi="18.81974"
     inkscape:export-ydpi="18.81974"><g
       inkscape:export-ydpi="71.214996"
       inkscape:export-xdpi="71.214996"
       transform="translate(2.211613,-68.600683)"
       id="g4157"><path
         inkscape:connector-curvature="0"
         style="fill:#20d0c2"
         d="m 146.447,100.32 255.168,0 57.901,263.754 -21.206,0.114 -0.508,93.121 21.856,0.114 -0.143,15.561 -344.931,0 C 81.938,470.37 84.85,410.49 83.104,394.462 l 29.062,-268.12 c 0.112,-11.915 12.126,-26.022 34.281,-26.022 l 0,0 z"
         id="path5" /><path
         inkscape:connector-curvature="0"
         style="fill:#ff5b61"
         d="m 146.447,100.32 24.438,0 -22.243,372.664 -38.143,-1.097 C 78.603,470.634 73.839,394.384 84.486,366.739 l 27.681,-240.398 c 0.112,-11.914 12.127,-26.021 34.28,-26.021 l 0,0 z"
         id="path7" /><path
         inkscape:connector-curvature="0"
         style="fill:#ffffff"
         d="m 119.026,364.045 333.877,0 c -15.15,31.942 -14.757,63.443 0,94.526 l -333.877,0 c -35.815,10e-4 -35.81,-94.526 0,-94.526 z"
         id="path9" /><path
         inkscape:connector-curvature="0"
         style="fill:#ecf0f1"
         d="m 94.749,390.031 349.218,0 c -0.204,0.946 -0.392,1.893 -0.568,2.837 l -349.321,0 c 0.209,-0.957 0.429,-1.906 0.671,-2.837 l 0,0 z m 347.584,9.944 0,0 c -0.11,0.946 -0.204,1.892 -0.284,2.837 l -349.494,0 c 0.086,-0.951 0.194,-1.898 0.314,-2.837 l 349.464,0 z m -0.634,9.944 0,0 c -0.014,0.946 -0.014,1.891 0,2.837 l -349.515,0 c -0.014,-0.946 -0.014,-1.891 0,-2.837 l 349.515,0 z m 0.355,9.942 0,0 c 0.083,0.949 0.176,1.893 0.284,2.838 l -349.464,0 c -0.119,-0.941 -0.224,-1.888 -0.311,-2.838 l 349.491,0 z m 1.351,9.944 0,0 c 0.174,0.944 0.364,1.891 0.568,2.837 l -349.21,0 c -0.246,-0.934 -0.466,-1.88 -0.674,-2.837 l 349.316,0 z m 2.343,9.941 0,0 c 0.269,0.946 0.553,1.893 0.851,2.837 l -348.305,0 c -0.428,-0.916 -0.838,-1.865 -1.22,-2.837 l 348.674,0 0,0 z m 3.335,9.944 0,0 c 0.366,0.946 0.745,1.893 1.136,2.837 l -345.195,0 c -0.872,-0.866 -1.699,-1.816 -2.484,-2.837 l 346.543,0 z"
         id="path11" /><path
         inkscape:connector-curvature="0"
         style="fill:#ff5b61"
         d="m 134.059,412.959 52.174,0 0,99.041 -26.304,-32.31 -25.87,32.31 0,-99.041 0,0 z"
         id="path13" /><path
         inkscape:connector-curvature="0"
         style="fill:#dfe1e3"
         d="m 153.961,383.864 268.909,0 15.333,0 7.269,0 c 1.809,-6.567 4.271,-13.148 7.401,-19.753 0.008,-0.021 0.02,-0.044 0.032,-0.065 l -23.865,0 -273.895,0 -36.121,0 c -33.139,0 -35.615,80.947 -7.417,93.027 -9.549,-27.879 -1.921,-73.209 22.878,-73.209 l 19.476,0 0,0 z"
         id="path15" /><g
         id="g17"><path
           inkscape:connector-curvature="0"
           style="fill:#ecf0f1"
           d="m 250.233,314.794 100.579,0 0,-7.213 -100.579,0 0,7.213 z"
           id="path19" /><path
           inkscape:connector-curvature="0"
           style="fill:#ecf0f1"
           d="m 258.329,328.435 84.389,0 0,-5.401 -84.389,0 0,5.401 z"
           id="path21" /></g></g><rect
       y="15.186438"
       x="42.305084"
       height="444.74576"
       width="458.84747"
       id="rect4168"
       style="opacity:1;fill:none;fill-opacity:0.78064515;fill-rule:nonzero;stroke:none;stroke-width:0;stroke-linecap:butt;stroke-miterlimit:4;stroke-dasharray:none;stroke-opacity:1" /></g></svg>