<svg xmlns="http://www.w3.org/2000/svg" xmlns:svg="http://www.w3.org/2000/svg" id="Layer_1" x="0" y="0" enable-background="new 0 0 512 512" version="1.1" viewBox="0 0 512 512" xml:space="preserve"><metadata id="metadata57"/><g id="g4170" transform="translate(-9.7627115,-5.4237289)"><g id="g4157" transform="translate(2.211613,-68.600683)"><path id="path5" fill="#20d0c2" d="m 146.447,100.32 255.168,0 57.901,263.754 -21.206,0.114 -0.508,93.121 21.856,0.114 -0.143,15.561 -344.931,0 C 81.938,470.37 84.85,410.49 83.104,394.462 l 29.062,-268.12 c 0.112,-11.915 12.126,-26.022 34.281,-26.022 l 0,0 z"/><path id="path7" fill="#ff5b61" d="m 146.447,100.32 24.438,0 -22.243,372.664 -38.143,-1.097 C 78.603,470.634 73.839,394.384 84.486,366.739 l 27.681,-240.398 c 0.112,-11.914 12.127,-26.021 34.28,-26.021 l 0,0 z"/><path id="path9" fill="#fff" d="m 119.026,364.045 333.877,0 c -15.15,31.942 -14.757,63.443 0,94.526 l -333.877,0 c -35.815,10e-4 -35.81,-94.526 0,-94.526 z"/><path id="path11" fill="#ecf0f1" d="m 94.749,390.031 349.218,0 c -0.204,0.946 -0.392,1.893 -0.568,2.837 l -349.321,0 c 0.209,-0.957 0.429,-1.906 0.671,-2.837 l 0,0 z m 347.584,9.944 0,0 c -0.11,0.946 -0.204,1.892 -0.284,2.837 l -349.494,0 c 0.086,-0.951 0.194,-1.898 0.314,-2.837 l 349.464,0 z m -0.634,9.944 0,0 c -0.014,0.946 -0.014,1.891 0,2.837 l -349.515,0 c -0.014,-0.946 -0.014,-1.891 0,-2.837 l 349.515,0 z m 0.355,9.942 0,0 c 0.083,0.949 0.176,1.893 0.284,2.838 l -349.464,0 c -0.119,-0.941 -0.224,-1.888 -0.311,-2.838 l 349.491,0 z m 1.351,9.944 0,0 c 0.174,0.944 0.364,1.891 0.568,2.837 l -349.21,0 c -0.246,-0.934 -0.466,-1.88 -0.674,-2.837 l 349.316,0 z m 2.343,9.941 0,0 c 0.269,0.946 0.553,1.893 0.851,2.837 l -348.305,0 c -0.428,-0.916 -0.838,-1.865 -1.22,-2.837 l 348.674,0 0,0 z m 3.335,9.944 0,0 c 0.366,0.946 0.745,1.893 1.136,2.837 l -345.195,0 c -0.872,-0.866 -1.699,-1.816 -2.484,-2.837 l 346.543,0 z"/><path id="path13" fill="#ff5b61" d="m 134.059,412.959 52.174,0 0,99.041 -26.304,-32.31 -25.87,32.31 0,-99.041 0,0 z"/><path id="path15" fill="#dfe1e3" d="m 153.961,383.864 268.909,0 15.333,0 7.269,0 c 1.809,-6.567 4.271,-13.148 7.401,-19.753 0.008,-0.021 0.02,-0.044 0.032,-0.065 l -23.865,0 -273.895,0 -36.121,0 c -33.139,0 -35.615,80.947 -7.417,93.027 -9.549,-27.879 -1.921,-73.209 22.878,-73.209 l 19.476,0 0,0 z"/><g id="g17"><path id="path19" fill="#ecf0f1" d="m 250.233,314.794 100.579,0 0,-7.213 -100.579,0 0,7.213 z"/><path id="path21" fill="#ecf0f1" d="m 258.329,328.435 84.389,0 0,-5.401 -84.389,0 0,5.401 z"/></g></g><rect id="rect4168" width="458.847" height="444.746" x="42.305" y="15.186" fill="none" fill-opacity=".781" fill-rule="nonzero" stroke="none" stroke-dasharray="none" stroke-linecap="butt" stroke-miterlimit="4" stroke-opacity="1" stroke-width="0" opacity="1"/></g></svg>